<?xml version="1.0" encoding="utf-8"?>
<!-- Generator: Adobe Illustrator 23.0.3, SVG Export Plug-In . SVG Version: 6.00 Build 0)  -->
<svg version="1.1" id="Layer_1" xmlns:svgjs="http://svgjs.com/svgjs"
	 xmlns="http://www.w3.org/2000/svg" xmlns:xlink="http://www.w3.org/1999/xlink" x="0px" y="0px" viewBox="0 0 512 512"
	 style="enable-background:new 0 0 512 512;" xml:space="preserve">
<style type="text/css">
	.st0{fill:#347BFA;}
	.st1{fill:#CADCF0;}
	.st2{fill:#E9F3FC;}
	.st3{fill:#738BAB;}
	.st4{font-family:'TitilliumWeb-SemiBold';}
	.st5{font-size:56.3264px;}
	.st6{font-size:35.204px;}
</style>
<g>
	<g id="Exp-2.-F">
		<g>
			<path class="st0" d="M75.8,162.2L17,257.8c-1.4,2.3-1.5,5.1-0.2,7.4s3.8,3.8,6.4,3.8h66.2c4.1,0,7.4-3.3,7.4-7.4
				s-3.3-7.4-7.4-7.4h-53l51.9-84.4c2.1-3.5,1-8-2.4-10.1C82.4,157.7,77.9,158.7,75.8,162.2z"/>
			<path class="st0" d="M82,224.9v103c0,4.1,3.3,7.4,7.4,7.4s7.4-3.3,7.4-7.4v-103c0-4.1-3.3-7.4-7.4-7.4S82,220.8,82,224.9z"/>
			<path class="st0" d="M414.1,162.2l-58.8,95.6c-1.4,2.3-1.5,5.1-0.2,7.4s3.8,3.8,6.4,3.8h66.2c4.1,0,7.4-3.3,7.4-7.4
				s-3.3-7.4-7.4-7.4h-53l51.9-84.4c2.1-3.5,1-8-2.4-10.1C420.7,157.7,416.2,158.7,414.1,162.2L414.1,162.2z"/>
			<path class="st0" d="M420.3,224.9v103c0,4.1,3.3,7.4,7.4,7.4s7.4-3.3,7.4-7.4v-103c0-4.1-3.3-7.4-7.4-7.4
				S420.3,220.8,420.3,224.9z"/>
		</g>
		<path class="st1" d="M131.7,222c8.8-5.1,23.3,3.6,32.5,19.5s9.4,32.8,0.6,37.9c-8.8,5.1-23.3-3.6-32.5-19.5
			C123.2,244,122.9,227,131.7,222z"/>
		<path class="st1" d="M319.2,222c-8.8-5.1-23.3,3.6-32.5,19.5s-9.4,32.8-0.6,37.9s23.3-3.6,32.5-19.5C327.7,244,328,227,319.2,222z
			"/>
		<path class="st1" d="M232.8,135.1c39.7,0.7,76.5,34.6,73.5,95.6c-1.8,37.4-25,47.6-37.9,88.2c-6.3,19.8-6.9,39.8-6.7,50.6
			c0.1,2.1-0.7,4.2-2.3,5.7c-1.6,1.5-3.7,2.2-5.8,1.9c-47.8-7.1-109.2-70.5-109.2-131.8C144.5,180.5,184.1,134.3,232.8,135.1
			L232.8,135.1z"/>
		<path class="st2" d="M148.8,274.3c-2.8-9.5-4.3-19.2-4.3-28.9c0-64.9,39.6-111.1,88.3-110.3c30.1,0.5,58.5,20.1,69.2,56.1
			c-5.7,55.6-48.8,98.9-101,98.9C181.9,290.1,164.1,284.3,148.8,274.3z"/>
		<ellipse class="st3" cx="225.4" cy="239.6" rx="14.7" ry="22.1"/>
		<path class="st3" d="M203.1,189.1c1.3,4.9,1.4,13.1-5.9,18c-1.7,1.1-2.1,3.4-1,5.1c1.1,1.7,3.4,2.1,5.1,1
			c10.6-7.1,10.8-19,8.8-26.1c-0.5-2-2.6-3.1-4.5-2.6C203.7,185.1,202.6,187.1,203.1,189.1L203.1,189.1z"/>
		<path class="st3" d="M240.7,187.1c-1.9,7.1-1.7,18.9,8.8,26.1c1.7,1.1,4,0.7,5.1-1s0.7-4-1-5.1c-7.3-4.9-7.2-13.2-5.9-18
			c0.5-2-0.6-4-2.6-4.5C243.2,184,241.2,185.2,240.7,187.1L240.7,187.1z"/>
	</g>
</g>
<text transform="matrix(1 0 0 1 24.251 123.897)" class="st0 st4 st5">Error!</text>
<text transform="matrix(1 0 0 1 239.749 433.5781)" class="st0 st4 st6">Page not found!</text>
</svg>
